<?xml version="1.0" encoding="UTF-8"?>
<svg id="Layer_2" data-name="Layer 2" xmlns="http://www.w3.org/2000/svg" viewBox="0 0 217.25 196.62">
  <g id="Layer_1-2" data-name="Layer 1">
    <g>
      <path d="M53.12,61.96V0h40.46v6.85h-32.91v19.31h29.67v6.85h-29.67v28.96h-7.55Z" style="fill: #343438;"/>
      <path d="M92.44,40.02c0-13.87,7.81-22.56,20.71-22.56,12.2,0,19.48,8.78,19.48,23.08s-7.72,22.47-20.01,22.47c-13.17,0-20.19-8.95-20.19-23ZM112.89,23.35c-8.07,0-13.25,6.32-13.25,16.15,0,10.97,5.09,17.64,12.9,17.64s12.9-6.23,12.9-16.59-4.74-17.2-12.55-17.2Z" style="fill: #343438;"/>
      <path d="M166.61,55.12c-3.16,4.74-7.55,6.93-13.52,6.93-10.62,0-17.11-8.34-17.11-21.94s7.37-22.21,17.9-22.21c5.79,0,10.09,1.93,12.9,6.23v-5.53h6.93v42.04c0,8.34-1.76,13.25-6.06,16.5-3.16,2.37-8.25,3.6-12.99,3.6-9.83,0-15.71-4.92-17.64-13.17l7.29-1.84c.88,5.88,4.92,9.13,10.8,9.13,4.48,0,7.37-1.23,9.13-3.42,1.93-2.46,2.37-6.23,2.37-11.59v-4.74ZM155.29,23.87c-7.46,0-12.2,6.06-12.2,15.89,0,10.44,4.65,16.76,11.94,16.76s11.59-5.79,11.59-15.45c0-10.44-3.6-17.2-11.32-17.2Z" style="fill: #343438;"/>
      <path d="M167.4,121.92c-3.16,4.74-7.55,6.93-13.52,6.93-10.62,0-17.11-8.34-17.11-21.94s7.37-22.21,17.9-22.21c5.79,0,10.09,1.93,12.9,6.23v-5.53h6.93v42.04c0,8.34-1.76,13.25-6.06,16.5-3.16,2.37-8.25,3.6-12.99,3.6-9.83,0-15.71-4.92-17.64-13.17l7.29-1.84c.88,5.88,4.92,9.13,10.8,9.13,4.48,0,7.37-1.23,9.13-3.42,1.93-2.46,2.37-6.23,2.37-11.59v-4.74ZM156.07,90.67c-7.46,0-12.2,6.06-12.2,15.89,0,10.44,4.65,16.76,11.94,16.76s11.59-5.79,11.59-15.45c0-10.44-3.6-17.2-11.32-17.2Z" style="fill: #343438;"/>
      <path d="M177.05,85.41h7.72c5.44,15.53,9.65,28.7,12.55,37.48,2.72-8.6,7.72-23.96,12.46-37.48h7.46l-17.99,49.06c-3.69,10.09-7.2,13.08-15.1,13.08-1.67,0-3.16-.18-4.56-.53v-6.06c1.23.44,3.16.7,4.04.7,3.95,0,5.79-.18,8.25-6.85l1.58-4.39-16.41-45.02Z" style="fill: #343438;"/>
      <path d="M91.61,195.57v-28.88h-33v28.88h-7.37v-61.96h7.37v26.42h33v-26.42h7.46v61.96h-7.46Z" style="fill: #343438;"/>
      <path d="M140.09,184.33c-2.55,7.9-9.65,12.29-17.99,12.29-13.52,0-20.54-9.22-20.54-23.26s8.16-22.29,20.1-22.29,18.43,8.25,18.52,23.87h-31.6c0,9.48,4.83,15.8,13.69,15.8,5.27,0,9.92-1.93,11.67-8.43l6.14,2.02ZM121.49,156.78c-6.58,0-11.85,3.95-12.81,12.73h24.4c-.61-9.22-5.18-12.73-11.59-12.73Z" style="fill: #343438;"/>
      <path d="M168.97,195.57c-3.77-6.06-7.64-12.38-11.23-18.43-2.98,4.92-6.14,10.27-11.23,18.43h-7.64l14.48-22.47-13.34-20.89h7.99c3.34,5.53,6.58,11.06,9.83,16.59,3.25-5.27,5.88-9.83,10.01-16.59h7.64l-13.25,20.63,14.57,22.73h-7.81Z" style="fill: #343438;"/>
    </g>
    <path d="M114.52,99.72s-29.37,14.59-55.22,1.82c-24.78-12.24-44.65-5.47-57.57,3.65" style="fill: none; stroke: #343438; stroke-miterlimit: 10; stroke-width: 6px;"/>
  </g>
</svg>